<?xml version="1.0"?>
<svg xmlns="http://www.w3.org/2000/svg" xmlns:xlink="http://www.w3.org/1999/xlink" data-noselect="" viewBox="0 0 800 600" width="1600" height="1200" preserveAspectRatio="none" version="1.1"><defs/> <g id="background" data-noselect=""><rect fill="#ffffff" width="800" height="600" data-noselect=""/> <!----></g> <g id="shape_ZJQcABtTv7" transform="translate(296.67148590088004,253.01856040954502) rotate(0,69.5,33.774065358288) scale(1,1)" filter="" style="cursor: move; opacity: 1;"><g><svg xmlns="http://www.w3.org/2000/svg" xmlns:xlink="http://www.w3.org/1999/xlink" version="1.1" id="&#x56FE;&#x5C42;_1" x="0px" y="0px" width="139" height="67.548130716575" viewBox="19.226322174072266 62.573951721191406 153.773681640625 74.7275161743164" style="enable-background:new 0 0 200 200;" xml:space="preserve" class="style-removed" preserveAspectRatio="none" data-parent="shape_ZJQcABtTv7">

<path d="M173,70c0,0-18.8,17.4-57.7,11.2c-19-3-27.3-13.8-56.3-12.8c0,0,14.2-9.3,42.4-4.4C137,70.1,144.4,74.8,173,70z  " fill="#05B4EC" stroke-width="0"/>
<path d="M128,87.9c0,0-17,6.9-53.2,1c-36.1-5.8-52.9,8.7-48.4,38.4c0,0-19.5-27.2,5.8-46.5c20.6-15.7,56.5-2.1,71.2,1.7  C120.5,86.9,128,87.9,128,87.9z" fill="#0484D2" stroke-width="0"/>
<path d="M70.7,130.2v6.5c0,0-22.5,3-32.3-4.4c-9.7-7.4-10.4-23.7,1.3-32.3c13-9.6,30.2-7.7,48.5-5.9  c0,0-40,0.1-44.4,14.1c-3.3,10.6,2.8,20.3,10.5,21.2S70.7,130.2,70.7,130.2z" fill="#0453A9" stroke-width="0"/>
</svg></g></g><g id="shape_M7ChEZ5GDq" transform="translate(272.32851409912,78.42843959045501) rotate(0,231,242.13825) scale(1,1)" filter="" style="cursor: move; opacity: 1;"><g><svg xmlns="http://www.w3.org/2000/svg" xmlns:xlink="http://www.w3.org/1999/xlink" version="1.1" width="432" height="470.106" viewBox="0 0 432 470.106" data-parent="shape_M7ChEZ5GDq"><g data-width="163.614" transform="translate(67, 0)"><path d="M41.34-7.97L48.91-7.97L48.91 0L32.16 0L28.54 0Q22.91 0 20.84-0.17Q18.76-0.34 15.88-1.01L15.88-1.01Q8.38-2.75 4.82-9.58L4.82-9.58Q2.14-14.81 2.14-22.11L2.14-22.11Q2.14-34.84 8.51-40.33L8.51-40.33Q13.94-44.96 24.19-44.96L24.19-44.96Q30.95-44.96 35.98-42.68L35.98-42.68Q39.13-41.21 41.14-39.06Q43.15-36.92 44.35-33.50L44.35-33.50Q46.30-28.21 46.30-22.65L46.30-22.65Q46.30-14.07 41.34-7.97L41.34-7.97ZM24.25-37.45L24.25-37.45Q18.36-37.45 15.51-33.87Q12.66-30.28 12.66-22.98L12.66-22.98Q12.66-16.62 14.54-12.66L14.54-12.66Q17.02-7.50 24.32-7.50L24.32-7.50Q31.16-7.50 33.77-12.26L33.77-12.26Q35.78-15.88 35.78-22.78L35.78-22.78Q35.78-29.08 33.37-33.03L33.37-33.03Q30.62-37.39 24.25-37.45Z" transform="translate(0 258.553) skewX(0)" fill="#05408a" stroke="#05408a" stroke-width="0.112" data-glyph-w="50.652" data-glyph-h="67" data-glyph-ascender="57.553000000000004" data-glyph-descender="-9.447000000000001"/><path d="M14.07 0L4.56 0L4.56-44.69L14.07-44.69L14.07 0Z" transform="translate(50.652 258.553) skewX(0)" fill="#05408a" stroke="#05408a" stroke-width="0.112" data-glyph-w="18.559" data-glyph-h="67" data-glyph-ascender="57.553000000000004" data-glyph-descender="-9.447000000000001"/><path d="M31.89 0L13.67-32.76L13.67 0L4.56 0L4.56-44.69L16.75-44.69L34.51-11.39L34.51-44.69L43.55-44.69L43.55 0L31.89 0Z" transform="translate(69.211 258.553) skewX(0)" fill="#05408a" stroke="#05408a" stroke-width="0.112" data-glyph-w="48.106" data-glyph-h="67" data-glyph-ascender="57.553000000000004" data-glyph-descender="-9.447000000000001"/><path d="M20.97-18.56L20.97-26.53L42.88-26.53L42.88 0L22.91 0Q17.76 0 14.71-0.77Q11.66-1.54 9.18-3.48L9.18-3.48Q2.14-8.91 2.14-22.18L2.14-22.18Q2.14-30.82 5.49-36.58L5.49-36.58Q7.97-40.80 12.26-42.75Q16.55-44.69 23.38-44.69L23.38-44.69L42.88-44.69L42.88-36.72L24.46-36.72Q18.49-36.72 15.81-34.10L15.81-34.10Q12.60-31.02 12.60-23.05L12.60-23.05Q12.60-18.96 13.43-15.68Q14.27-12.40 15.75-10.79L15.75-10.79Q17.02-9.31 19.26-8.64Q21.51-7.97 24.79-7.97L24.79-7.97L33.43-7.97L33.43-18.56L20.97-18.56Z" transform="translate(117.31700000000001 258.553) skewX(0)" fill="#05408a" stroke="#05408a" stroke-width="0.112" data-glyph-w="46.297000000000004" data-glyph-h="67" data-glyph-ascender="57.553000000000004" data-glyph-descender="-9.447000000000001"/></g></svg></g></g>  <!----></svg>
